<svg version="1" xmlns="http://www.w3.org/2000/svg" width="682.667" height="682.667" viewBox="0 0 512.000000 512.000000"><path d="M58 3.9C49.5 5.4 41.3 7 39.8 7.3L37 8v58.8c0 36.2.4 59.3 1 60.2.5.8 1 1 1 .5 0-.6.5-.2 1.1.7.9 1.7 5.3 1.8 68.2 1.8h67.2v190.1c0 171.9.1 190.2 1.6 190.9 1.9 1.1 123.2.7 127.4-.4 1.7-.4 8.1-1.8 14.3-3.1 6.2-1.3 11.8-3 12.5-3.7 1-1 1.2-39.9 1.2-187.3v-186l48.5-.2c26.7-.1 48.7-.3 49-.4.3-.1 2.1-.3 4-.4 2.8-.2 14.1-2.3 28-5 .8-.2 2-.4 2.7-.4.7-.1 2.3-1.2 3.8-2.5l2.5-2.3-.2-58.9-.3-58.9L272 1.4 73.5 1.2 58 3.9z"/></svg>